# xmcd CD database file
#
# Track frame offsets:
#	150
#	14907
#	32875
#	46145
#	61707
#	86367
#	104462
#	121000
#	137242
#	153825
#	167462
#	178605
#
# Disc length: 2569 seconds
#
# Revision: 1
# Processed by: cddbd v1.5.2PL0 Copyright (c) Steve Scherf et al.
# Submitted via: CDex 1.51
#
DISCID=900a070c
DTITLE=Buick 6 - Cypress Grove
DYEAR=1990
DGENRE=Blues - Rock
TTITLE0=From A Buick 6
TTITLE1=Cypress Grove
TTITLE2=Stealin'
TTITLE3=The Puller
TTITLE4=Joshua Gone Barbados
TTITLE5=A Few Of Your Lines
TTITLE6=Nobody's Fault But Mine
TTITLE7=Statesboro Blues
TTITLE8=Stones In My Passway
TTITLE9=Jitterbug Swing
TTITLE10=Sugar Cane Train
TTITLE11=Barrelhouse Woman
EXTD=Taxim Records TX 1003-2 TA YEAR: 1990
EXTT0=
EXTT1=
EXTT2=
EXTT3=
EXTT4=
EXTT5=
EXTT6=
EXTT7=
EXTT8=
EXTT9=
EXTT10=
EXTT11=
PLAYORDER=
